<?xml version="1.0" encoding="UTF-8" standalone="no"?>
<!DOCTYPE svg PUBLIC "-//W3C//DTD SVG 1.1//EN" "http://www.w3.org/Graphics/SVG/1.1/DTD/svg11.dtd">
<svg width="100%" height="100%" viewBox="0 0 453 368" version="1.1" xmlns="http://www.w3.org/2000/svg" xmlns:xlink="http://www.w3.org/1999/xlink" xml:space="preserve" xmlns:serif="http://www.serif.com/" style="fill-rule:evenodd;clip-rule:evenodd;stroke-linecap:round;stroke-linejoin:round;stroke-miterlimit:1.5;">
    <g transform="matrix(1,0,0,1,-460.797052,-1644.714428)">
        <g transform="matrix(1,0,0,1,26.121908,-34.626695)">
            <g>
                <path d="M862.475,1756.694C869.958,1754.697 864.282,1750.219 873.537,1747.134C890.966,1741.324 885.493,1735.118 876.595,1719.102C856.418,1682.783 832.806,1668.41 732.629,1717.914C717.063,1697.92 710.45,1681.35 666.613,1682.916C662.304,1683.07 661.108,1677.666 614.117,1695.148C593.144,1702.951 594.425,1699.134 571.956,1715.042C552.157,1729.061 552.074,1730.694 537.158,1749.173C536.447,1750.053 518.417,1775.751 522.887,1798.101C526.558,1816.454 564.089,1826.948 581.499,1839.384C583.94,1841.127 584.298,1840.099 613.608,1858.751C613.778,1855.175 614.898,1831.648 640.62,1823.074C675.829,1811.338 698.892,1853.428 701.78,1849.577C705.144,1845.092 739.666,1827.831 743.063,1826.132C763.928,1815.7 761.821,1812.337 768.546,1810.842C792.004,1805.629 772.175,1790.364 791.481,1761.405C798.058,1751.54 822.725,1743.164 825.501,1742.911" style="fill:url(#_Linear1);"/>
                <path d="M609.373,1720.543C609.608,1724.211 627.186,1765.76 641.72,1758.492C643.6,1757.552 644.146,1759.674 666.733,1750.471C682.006,1744.248 681.95,1744.174 683.286,1743.658C698.941,1737.609 703.302,1734.376 704.673,1734.062L704.93,1733.806C706.525,1733.211 725.181,1726.248 724.303,1724.979C723.38,1723.646 726.386,1721.804 717.564,1714.432C713.181,1710.77 710.094,1702.177 695.223,1697.221C690.583,1695.674 679.493,1689.184 666.328,1694.548C665.237,1694.993 654.375,1694.587 649.299,1696.197C645.868,1697.285 623.177,1697.404 610.772,1708.504C609.66,1709.499 606.966,1711.402 605.718,1711.58" style="fill:rgb(0,178,255);"/>
                <path d="M619.833,1711.24C620.049,1716.352 626.447,1719.784 628.783,1719.317C630.425,1718.988 630.339,1718.738 648.938,1713.665C662.739,1709.9 663.155,1715.509 675.981,1712.572C683.682,1710.809 692.587,1713.256 693.978,1713.638C695.139,1713.958 701.185,1713.269 700.332,1712.037C696.127,1705.963 689.688,1690.548 629.607,1703.26C623.234,1704.609 621.028,1708.633 620.609,1709.397C620.471,1709.648 619.498,1710.518 619.396,1710.61" style="fill:rgb(123,215,255);"/>
                <path d="M826.656,1822.374C819.307,1823.012 802.464,1819.826 801.53,1819.036C792.85,1811.691 787.067,1814.023 784.648,1800.957C784.186,1798.462 775.367,1780.853 795.968,1757.677C803.466,1749.242 813.52,1750.015 815.165,1750.142C820.815,1750.577 820.76,1749.957 826.468,1750.501C832.003,1751.028 831.565,1752.658 837.233,1753.012C837.675,1753.04 837.004,1754.013 842.077,1755.704C843.852,1757.752 862.238,1767.145 860.915,1796.251C860.749,1799.909 846.551,1819.531 826.656,1822.374C825.295,1822.569 822.063,1804.488 823.859,1803.724C825.207,1801.945 852.548,1777.148 818.574,1774.721C811.536,1774.218 808.002,1775.178 805.836,1788.177C803.93,1799.612 809.435,1802.687 814.986,1803.427L817.677,1804.324C819.871,1804.524 821.647,1803.882 823.859,1803.724" style="fill:rgb(117,117,117);"/>
                <path d="M822.608,1803.551C819.316,1808.819 822.023,1826.468 827.286,1821.645C828.385,1820.637 828.404,1814.175 827.224,1809.028C826.583,1806.23 823.369,1802.575 823.285,1802.074" style="fill:rgb(117,117,117);"/>
                <path d="M650.165,1880.903C648.305,1881.437 623.753,1860.331 648.489,1846.479C652.254,1844.37 665.165,1849.675 668.062,1854.578C671.4,1860.228 672.074,1864.468 663.877,1874.961C669.255,1874.154 668.293,1872.193 673.191,1869.966C678.183,1867.697 680.238,1864.596 689.389,1861.327C692.475,1860.225 694.142,1853.005 691.954,1849.449C689.455,1845.388 690.295,1839.208 681.965,1833.655C680.124,1832.428 680.837,1831.09 669.141,1827.041C656.229,1822.571 656.483,1821.054 649.839,1821.912C639.692,1823.221 626.816,1832.847 624.461,1836.085C624.446,1836.106 614.249,1848.154 615.957,1860.113C616.186,1861.716 621.5,1865.841 627.971,1866.457C628.242,1866.777 630.187,1869.076 632.291,1869.426" style="fill:rgb(117,117,117);"/>
                <path d="M809.229,1798.731C799.784,1795.332 808.677,1769.977 824.437,1773.917C847.581,1779.703 833.709,1806.321 814.698,1802.864" style="fill:rgb(182,182,182);"/>
                <path d="M645.676,1849.36C633.857,1847.705 631.053,1891.511 664.554,1873.472C670.691,1870.168 676.634,1844.887 647.781,1847.772" style="fill:rgb(182,182,182);"/>
                <path d="M652.607,1884.837C656.305,1887.949 675.424,1904.367 694.169,1926.165C714.372,1949.657 766.413,1980.417 768.706,1982.197C782.772,1976.022 800.833,1962.983 822.598,1952.1C829.271,1948.764 828.83,1948.364 834.14,1943.054C836.125,1941.069 843.861,1938.651 844.746,1938.375C848.415,1937.228 846.449,1933.877 856.912,1930.888C857.589,1930.695 857.473,1928.255 858.16,1928.392C859.89,1928.738 862.264,1929.213 877.5,1917.786C888.784,1909.323 874.471,1909.511 847.866,1879.105C837.284,1867.012 818.178,1851.897 783.939,1803.645C780.669,1804.974 750.385,1821.814 746.173,1825.763C738.136,1833.298 710.332,1846.877 709.051,1850.719" style="fill:url(#_Linear2);"/>
                <path d="M565.093,1999.819C573.895,2010.223 627.235,2034.169 646.969,2043.704C652.244,2042.385 651.936,2041.989 708.065,2013.924C751.332,1992.29 758.959,1983.68 762.359,1979.841C739.801,1972.447 703.974,1932.772 684.625,1914.456C655.168,1886.571 648.862,1881.626 651.35,1884.114" style="fill:url(#_Linear3);"/>
                <path d="M522.68,1807.068C508.972,1825.739 509.519,1826.136 492.181,1841.547C490.837,1842.742 491.078,1842.948 476.427,1857.598C454.999,1879.026 459.004,1883.714 446.406,1888.214C441.686,1889.899 442.355,1892.829 435.705,1894.158C433.875,1894.524 438.649,1893.57 452.054,1910.804C454.417,1913.843 464.871,1919.099 486.534,1944.095C487.317,1944.999 523.488,1973.551 529.931,1982.142C531.205,1983.84 551.232,1998.861 553.116,2000.274C562.18,2007.072 560.829,1998.227 569.464,1990.167C572.827,1987.263 573.361,1988.043 576.003,1984.52C582.44,1975.938 585.25,1979.129 592.054,1970.55C603.733,1955.824 604.45,1956.379 612.564,1939.339C613.015,1938.392 619.248,1934.236 622.076,1927.449C633.279,1900.562 656.864,1887.625 647.936,1883.16C644.435,1881.41 641.267,1876.901 623.859,1867.109C617.642,1863.612 615.603,1856.965 599.783,1854.328C593.535,1853.287 595.495,1849.623 589.379,1847.789C586.652,1846.971 573.754,1834.855 565.6,1833.224C562.945,1832.693 564.444,1829.971 536.47,1815.984C535.653,1815.575 536.709,1814.344 527.553,1808.85C527.468,1808.799 527.326,1808.92 527.256,1808.85C527.157,1808.751 527.058,1808.652 526.959,1808.553" style="fill:url(#_Linear4);"/>
                <path d="M651.741,1886.241C650.16,1888.487 651.979,1889.408 636.463,1916.991C628.675,1930.837 626.747,1929.637 620.519,1944.169C617.696,1950.756 576.056,1997.617 573.954,2000.7C571.473,2004.338 570.646,2002.5 566.344,2001.424C561.032,2000.097 574.85,1989.325 585.187,1976.602C586.06,1975.528 586.608,1976.088 597.508,1964.462C598.479,1963.426 597.743,1962.961 606.93,1949.423C608.304,1947.398 608.784,1947.978 625.773,1925.325C626.451,1924.422 631.712,1917.407 633.564,1913.548C635.034,1910.486 638.964,1906.011 640.087,1903.764" style="fill:rgb(184,88,21);"/>
                <path d="M652.489,1889.031C653.69,1892.663 669.297,1912.444 672.018,1913.804C676.316,1915.953 674.188,1918.342 715.361,1955.398C731.852,1970.241 751.719,1982.355 752.68,1982.415C762.75,1983.045 758.743,1974.951 747.237,1969.198C728.067,1959.614 729.537,1954.37 712.834,1943.931C708.955,1941.506 687.178,1921.664 687.178,1920.996" style="fill:rgb(184,88,21);"/>
            </g>
            <g>
                <path d="M521.462,1806.08C641.777,1876.264 642.359,1876.613 651.458,1882.829" style="fill:none;stroke:black;stroke-width:4.84px;"/>
                <g transform="matrix(1,0,0,1,-5.571552,-6.467649)">
                    <path d="M823.629,1829.895C769.691,1827.106 786.244,1762.948 812.08,1758.894C839.246,1754.631 851.358,1756.3 860.988,1776.663C883.723,1824.737 823.629,1829.895 823.629,1829.895Z" style="fill:none;stroke:black;stroke-width:4.84px;"/>
                </g>
                <path d="M779.469,1800.448C773.816,1790.09 782.024,1755.169 803.919,1748.079C806.449,1747.259 817.649,1743.633 837.105,1746.125C850.188,1747.802 853.264,1752.856 859.632,1757.968C870.144,1751.431 869.055,1749.865 880.443,1744.717C887.748,1741.415 885.187,1737.169 880.57,1724.686C878.64,1719.467 869.476,1704.922 868.426,1703.254C862.244,1693.443 846.663,1689.296 844.499,1688.72C815.701,1681.055 812.779,1684.837 769.771,1699.485C764.657,1701.227 746.59,1709.961 744.598,1710.924C738.504,1713.871 734.2,1717.672 733.393,1718.385" style="fill:none;stroke:black;stroke-width:4.84px;"/>
                <path d="M732.098,1718.628C731.901,1716.422 731.032,1716.96 716.674,1695.634C712.02,1688.722 683.938,1677.975 661.804,1683.107C606.448,1695.941 606.697,1697.126 566.101,1719.923C564.079,1721.058 565.871,1722.77 544.543,1739.293C515.578,1761.733 520.062,1798.949 522.699,1802.864C523.705,1804.359 523.6,1804.166 523.551,1805.933" style="fill:none;stroke:black;stroke-width:4.84px;"/>
                <path d="M615.174,1859.598C615.089,1849.155 616.962,1838.512 622.317,1832.839C635.326,1819.057 661.82,1815.16 673.356,1823.805C682.396,1830.579 691.484,1838.946 694.713,1847.554C698.932,1858.803 704.524,1842.064 742.201,1826.86C759.673,1813.191 760.586,1815.089 778.82,1802.813" style="fill:none;stroke:black;stroke-width:4.84px;"/>
                <g transform="matrix(0.99986,-0.016725,0.016725,0.99986,-37.004001,5.096393)">
                    <path d="M613.734,1717.185C613.318,1719.374 629.658,1753.684 636.782,1761.079C647.641,1772.353 649.796,1764.443 672.912,1757.748C687.326,1753.573 725.811,1736.141 726.602,1735.651C738.172,1728.468 729.026,1725.948 720.779,1715.111C697.644,1684.713 618.241,1707.036 613.343,1716.086" style="fill:none;stroke:black;stroke-width:4.84px;"/>
                </g>
                <path d="M522.222,1805.227C519.917,1814.603 491.813,1838.49 470.687,1862.256C443.628,1892.698 436.269,1888.492 438.699,1890.921" style="fill:none;stroke:black;stroke-width:4.84px;"/>
                <path d="M437.098,1891.468C451.218,1919.526 553.51,2002.673 557.928,2002.673" style="fill:none;stroke:black;stroke-width:4.84px;"/>
                <path d="M650.217,1884.967C645.365,1892.837 605.694,1957.182 582.439,1978.578C560.93,1998.365 564.892,2006.778 558.343,2003.504" style="fill:none;stroke:black;stroke-width:4.84px;"/>
                <path d="M783.004,1805.227C783.312,1805.612 837.283,1876.889 857.039,1886.767C861.71,1889.103 886.851,1918.24 879.888,1911.278" style="fill:none;stroke:black;stroke-width:4.84px;"/>
                <path d="M650.985,1884.69C651.181,1885.017 702.208,1934.284 713.715,1944.512C724.303,1953.924 766.844,1981.947 767.721,1981.07" style="fill:none;stroke:black;stroke-width:4.84px;"/>
                <path d="M766.891,1982.316C764.398,1983.563 768.018,1983.161 768.137,1983.147C769.723,1982.971 861.71,1929.609 864.517,1929.141C870.229,1928.189 874.839,1916.284 883.627,1913.355" style="fill:none;stroke:black;stroke-width:4.84px;"/>
                <path d="M650.591,1886.524C645.538,1929.098 648.985,1996.291 647.306,2041.625" style="fill:none;stroke:black;stroke-width:4.84px;"/>
                <path d="M565.789,1998.699C571.998,2002.96 634.006,2045.515 648.173,2044.227" style="fill:none;stroke:black;stroke-width:4.84px;"/>
                <path d="M759.817,1979.591C752.763,1984.875 658.075,2046.051 647.54,2043.417" style="fill:none;stroke:black;stroke-width:4.84px;"/>
                <path d="M652.439,1882.56C668.913,1872.478 714.824,1847.486 730.117,1835.906C746.961,1823.151 770.182,1813.515 781.087,1804.123" style="fill:none;stroke:black;stroke-width:4.84px;"/>
                <g transform="matrix(1.024445,0,0,1,-17.395846,-2.464247)">
                    <path d="M819.019,1805.494C801.163,1809.124 797.33,1782.351 813.97,1775.712C833.322,1767.991 845.033,1797.865 819.019,1805.494Z" style="fill:none;stroke:black;stroke-width:4.79px;"/>
                </g>
                <g transform="matrix(1,0,0,1,2.332273,1.481102)">
                    <path d="M640.263,1872.711C631.89,1863.702 631.487,1852.941 643.007,1845.093C651.45,1839.341 673.564,1851.775 665.415,1867.235C660.305,1876.932 645.248,1878.074 640.263,1872.711Z" style="fill:none;stroke:black;stroke-width:4.84px;"/>
                </g>
                <path d="M616.859,1862.883C616.169,1856.926 616.915,1850.839 619.499,1845.434C626.134,1831.562 629.379,1830.444 635.928,1825.776C644.97,1819.33 668.262,1821.382 681.643,1833.771C687.166,1838.885 691.937,1848.13 692.087,1858.991" style="fill:none;stroke:black;stroke-width:4.84px;"/>
                <path d="M691.16,1860.942C691.161,1860.955 691.161,1860.968 691.161,1860.981" style="fill:none;stroke:black;stroke-width:4.84px;"/>
            </g>
        </g>
    </g>
    <defs>
        <linearGradient id="_Linear1" x1="0" y1="0" x2="1" y2="0" gradientUnits="userSpaceOnUse" gradientTransform="matrix(122.605299,454.959793,-454.959793,122.605299,636.415794,1641.811658)"><stop offset="0" style="stop-color:rgb(255,0,0);stop-opacity:1"/><stop offset="0.32" style="stop-color:rgb(250,0,0);stop-opacity:1"/><stop offset="1" style="stop-color:rgb(153,0,0);stop-opacity:1"/></linearGradient>
        <linearGradient id="_Linear2" x1="0" y1="0" x2="1" y2="0" gradientUnits="userSpaceOnUse" gradientTransform="matrix(217.222025,324.865762,-324.865762,217.222025,714.606328,1800.761956)"><stop offset="0" style="stop-color:rgb(255,181,81);stop-opacity:1"/><stop offset="1" style="stop-color:rgb(218,125,0);stop-opacity:1"/></linearGradient>
        <linearGradient id="_Linear3" x1="0" y1="0" x2="1" y2="0" gradientUnits="userSpaceOnUse" gradientTransform="matrix(13.287648,374.145092,-374.145092,13.287648,649.012061,1773.62735)"><stop offset="0" style="stop-color:rgb(255,181,81);stop-opacity:1"/><stop offset="1" style="stop-color:rgb(218,125,0);stop-opacity:1"/></linearGradient>
        <linearGradient id="_Linear4" x1="0" y1="0" x2="1" y2="0" gradientUnits="userSpaceOnUse" gradientTransform="matrix(-68.106348,326.536467,-326.536467,-68.106348,535.763767,1827.166951)"><stop offset="0" style="stop-color:rgb(255,181,81);stop-opacity:1"/><stop offset="1" style="stop-color:rgb(218,125,0);stop-opacity:1"/></linearGradient>
    </defs>
</svg>
